<svg id="Capa_1" enable-background="new 0 0 512 512" height="512" viewBox="0 0 512 512" width="512" xmlns="http://www.w3.org/2000/svg"><g><path d="m512 256c0 68.17-26.65 130.12-70.1 176l-.01.01c-7.686 8.115-27.385.829-36.065 7.88-11.92 9.683-13.238 33.209-26.795 40.65-15.07 8.28-31.08 15.09-47.81 20.22-8.345 2.569-16.871-14.509-25.558-12.803-5.72 1.124-11.51 21.282-17.362 22.013-10.58 1.34-21.36 2.03-32.3 2.03s-21.72-.69-32.3-2.03c-7.004-.874-13.917-16.138-20.729-17.572-7.525-1.585-14.927 10.598-22.191 8.362-16.73-5.13-32.74-11.94-47.81-20.22-13.554-7.439-3.51-30.967-15.43-40.65-8.685-7.055-39.752.228-47.44-7.89-43.45-45.88-70.1-107.83-70.1-176 0-141.38 114.62-256 256-256s256 114.62 256 256z" fill="#ac80dd"/><path d="m206.344 432.4h99.317v67.57h-99.317z" fill="#d0cee7"/><path d="m229.395 263.423h53.211v160.423h-53.211z" fill="#f9f6f6"/><path d="m229.395 263.423h26.608v160.423h-26.608z" fill="#dddaec"/><g fill="#d0cee7"><path d="m223.7 429.22v80.75c-14.74-1.84-29.08-4.95-42.92-9.21v-71.54z"/><path d="m331.22 429.22v71.54c-13.84 4.26-28.18 7.37-42.92 9.21v-80.75z"/></g><g><path d="m304.046 362.004-11.642-24.846 51.132-23.957c5.868-2.75 8.673-9.433 6.522-15.547l-32.723-93.049 25.884-9.104 32.723 93.049c6.846 19.464-2.081 40.743-20.764 49.496z" fill="#365e7d"/><path d="m207.954 362.004-51.132-23.957c-18.683-8.753-27.61-30.032-20.764-49.496l32.723-93.049 25.884 9.104-32.723 93.049c-2.15 6.114.654 12.797 6.522 15.547l51.132 23.957z" fill="#365e7d"/><path d="m150.154 129.492v-60.606c0-27.811 22.545-50.356 50.356-50.356h110.985c27.811 0 50.356 22.545 50.356 50.356v60.605" fill="#d0cee7"/><path d="m361.29 135.54-32.766 180.406h-145.056l-32.766-180.406c-2.973-16.44 6.402-32.629 22.156-38.231l37.064-13.147 34.686-12.278c7.363-2.606 15.411-2.606 22.774 0l71.774 25.426c15.755 5.601 25.129 21.789 22.134 38.23z" fill="#f9f6f6"/><path d="m231.828 315.945h-48.36l-32.766-180.405c-2.973-16.44 6.402-32.629 22.156-38.231l37.064-13.147z" fill="#dddaec"/><path d="m305.254 372.446h-98.504c-12.853 0-23.272-10.419-23.272-23.272v-33.233c0-12.853 10.419-23.272 23.272-23.272h98.504c12.853 0 23.272 10.419 23.272 23.272v33.233c0 12.853-10.419 23.272-23.272 23.272z" fill="#dddaec"/><path d="m246.461 372.445h-39.717c-12.85 0-23.277-10.426-23.277-23.277v-33.223c0-12.85 10.426-23.277 23.277-23.277h39.717c-12.85 0-23.254 10.427-23.254 23.277v33.223c0 12.851 10.404 23.277 23.254 23.277z" fill="#d0cee7"/><g fill="#2b4d66"><path d="m216.57 315.53h12.75v34.05h-12.75c-5.65 0-10.23-4.58-10.23-10.23v-13.59c0-5.65 4.58-10.23 10.23-10.23z"/><path d="m244.83 315.53h22.34v34.05h-22.34z"/><path d="m305.66 325.76v13.59c0 5.65-4.58 10.23-10.23 10.23h-12.75v-34.05h12.75c5.65 0 10.23 4.58 10.23 10.23z"/></g><circle cx="256.002" cy="176.736" fill="#365e7d" r="57.656"/><path d="m266.878 233.359c-3.526.681-7.162 1.032-10.878 1.032-31.842 0-57.654-25.812-57.654-57.654s25.812-57.654 57.654-57.654c3.716 0 7.352.351 10.878 1.032-26.643 5.078-46.786 28.496-46.786 56.622s20.142 51.543 46.786 56.622z" fill="#2b4d66"/><circle cx="256.002" cy="176.736" fill="#f6e266" r="35.909"/><path d="m266.384 211.119c-3.287.987-6.764 1.521-10.377 1.521-19.84 0-35.913-16.073-35.913-35.904s16.073-35.913 35.913-35.913c3.613 0 7.09.534 10.377 1.521-14.778 4.455-25.536 18.165-25.536 34.392s10.758 29.937 25.536 34.383z" fill="#ffd064"/></g><path d="m132.437 402.681h247.125v38.814h-247.125z" fill="#dddaec"/><path d="m132.437 422.087h247.125v19.407h-247.125z" fill="#d0cee7"/><g fill="#f9f6f6"><path d="m441.9 376.93v55.07c-18.24 19.26-39.44 35.68-62.87 48.54-5.65-4.52-9.26-11.47-9.26-19.27v-84.34c0-13.63 11.05-24.69 24.69-24.69h22.75c13.63 0 24.69 11.06 24.69 24.69z"/><path d="m142.23 376.93v84.34c0 7.8-3.61 14.75-9.26 19.27-23.43-12.86-44.63-29.28-62.87-48.54v-55.07c0-13.63 11.06-24.69 24.69-24.69h22.75c13.64 0 24.69 11.06 24.69 24.69z"/></g><g fill="#d0cee7"><path d="m441.89 415.2v16.81c-18.24 19.26-39.43 35.67-62.86 48.53-5.65-4.51-9.27-11.46-9.27-19.26v-46.08c0 13.64 11.06 24.69 24.7 24.69h22.75c13.63 0 24.68-11.05 24.68-24.69z"/><path d="m142.23 415.2v46.08c0 7.79-3.61 14.74-9.26 19.26-23.43-12.86-44.63-29.28-62.87-48.54v-16.8c0 13.64 11.06 24.69 24.69 24.69h22.75c13.64 0 24.69-11.05 24.69-24.69z"/></g></g></svg>