<svg height="511pt" viewBox="0 -10 511.9991 511" width="511pt" xmlns="http://www.w3.org/2000/svg"><g fill="#5e5f62"><path d="m465.613281 401.566406c-3.042969-.007812-5.851562-1.632812-7.375-4.265625l-18.074219-30.996093c-2.375-4.074219-.996093-9.300782 3.078126-11.675782 4.074218-2.375 9.300781-1 11.679687 3.074219l14.503906 24.960937 16.214844-5.554687c2.894531-1.023437 6.113281-.417969 8.433594 1.59375 2.320312 2.007813 3.382812 5.109375 2.78125 8.121094-.601563 3.011719-2.769531 5.464843-5.6875 6.429687l-22.824219 7.816406c-.878906.3125-1.800781.476563-2.730469.496094zm0 0"/><path d="m503.464844 363.097656c-3.648438 0-6.890625-2.324218-8.070313-5.777344l-5.554687-16.210937-28.628906 3.785156c-3.058594.476563-6.132813-.738281-8.039063-3.175781s-2.34375-5.714844-1.140625-8.566406c1.199219-2.851563 3.851562-4.828125 6.925781-5.167969l35.574219-4.710937c4.027344-.53125 7.875 1.847656 9.191406 5.691406l7.816406 22.835937c.890626 2.605469.472657 5.484375-1.128906 7.726563-1.601562 2.238281-4.1875 3.570312-6.945312 3.570312zm0 0"/><path d="m13.414062 368.976562c-4.050781-.007812-7.535156-2.859374-8.347656-6.824218l-4.886718-23.640625c-.828126-3.976563 1.269531-7.988281 5.007812-9.582031l33.023438-14.046876c4.339843-1.84375 9.351562.179688 11.195312 4.515626 1.847656 4.339843-.175781 9.351562-4.511719 11.195312l-26.582031 11.332031 3.472656 16.792969c.511719 2.515625-.132812 5.125-1.753906 7.109375-1.625 1.984375-4.054688 3.136719-6.617188 3.132813zm0 0"/><path d="m41.941406 387.714844c-4.367187-.015625-8.019531-3.328125-8.457031-7.671875-.441406-4.347657 2.472656-8.324219 6.75-9.214844l16.792969-3.472656-.195313-28.9375c0-4.691407 3.789063-8.503907 8.480469-8.53125h.050781c4.695313 0 8.507813 3.789062 8.535157 8.480469l.222656 35.839843c.019531 4.074219-2.839844 7.59375-6.828125 8.40625l-23.636719 4.890625c-.5625.132813-1.136719.203125-1.714844.210938zm0 0"/><path d="m179.199219 102.898438h-34.132813c-4.714844 0-8.535156-3.820313-8.535156-8.53125 0-4.714844 3.820312-8.535157 8.535156-8.535157h34.132813c4.714843 0 8.535156 3.820313 8.535156 8.535157 0 4.710937-3.820313 8.53125-8.535156 8.53125zm0 0"/><path d="m469.332031 102.898438h-34.132812c-4.710938 0-8.53125-3.820313-8.53125-8.53125 0-4.714844 3.820312-8.535157 8.53125-8.535157h34.132812c4.714844 0 8.535157 3.820313 8.535157 8.535157 0 4.710937-3.820313 8.53125-8.535157 8.53125zm0 0"/></g><path d="m145.066406 94.367188c0 9.425781-7.640625 17.066406-17.066406 17.066406s-17.066406-7.640625-17.066406-17.066406c0-9.425782 7.640625-17.066407 17.066406-17.066407s17.066406 7.640625 17.066406 17.066407zm0 0" fill="#ff5364"/><path d="m503.464844 94.367188c0 9.425781-7.640625 17.066406-17.066406 17.066406-9.425782 0-17.066407-7.640625-17.066407-17.066406 0-9.425782 7.640625-17.066407 17.066407-17.066407 9.425781 0 17.066406 7.640625 17.066406 17.066407zm0 0" fill="#ff5364"/><path d="m384 327.839844 25.515625 16.636718 25.769531-30.207031-51.285156-52.820312-4.863281-4.949219zm0 0" fill="#955ba5"/><path d="m384 217.929688v192.167968c-.003906 5.183594-1.582031 10.242188-4.523438 14.507813l-75.605468 11.09375h-70.144532l-83.371093-.253907c-12.789063-1.582031-22.382813-12.460937-22.355469-25.347656v-204.285156c-.007812-13.71875 5.4375-26.878906 15.136719-36.578125s22.855469-15.144531 36.574219-15.136719zm0 0" fill="#894b9d"/><path d="m217.71875.5h178.960938c21.273437 0 38.519531 17.246094 38.519531 38.519531v106.546875c0 42.414063-34.382813 76.800782-76.800781 76.800782h-102.398438c-42.414062 0-76.800781-34.386719-76.800781-76.800782v-106.546875c0-21.273437 17.246093-38.519531 38.519531-38.519531zm0 0" fill="#955ba5"/><path d="m290.132812 90.097656c0 21.210938-17.191406 38.402344-38.398437 38.402344-21.210937 0-38.402344-17.191406-38.402344-38.402344 0-21.207031 17.191407-38.398437 38.402344-38.398437 21.207031 0 38.398437 17.191406 38.398437 38.398437zm0 0" fill="#fff"/><path d="m264.53125 94.367188c0 4.710937-3.820312 8.53125-8.53125 8.53125-4.714844 0-8.535156-3.820313-8.535156-8.53125 0-4.714844 3.820312-8.535157 8.535156-8.535157 4.710938 0 8.53125 3.820313 8.53125 8.535157zm0 0" fill="#2c2f38"/><path d="m401.066406 90.097656c0 21.210938-17.191406 38.402344-38.398437 38.402344-21.210938 0-38.402344-17.191406-38.402344-38.402344 0-21.207031 17.191406-38.398437 38.402344-38.398437 21.207031 0 38.398437 17.191406 38.398437 38.398437zm0 0" fill="#fff"/><path d="m366.933594 94.367188c0 4.710937-3.820313 8.53125-8.535156 8.53125-4.710938 0-8.53125-3.820313-8.53125-8.53125 0-4.714844 3.820312-8.535157 8.53125-8.535157 4.714843 0 8.535156 3.820313 8.535156 8.535157zm0 0" fill="#2c2f38"/><path d="m290.132812 179.699219h-25.601562c-4.710938 0-8.53125-3.820313-8.53125-8.53125 0-4.714844 3.820312-8.535157 8.53125-8.535157h25.601562c4.710938 0 8.535157 3.820313 8.535157 8.535157 0 4.710937-3.824219 8.53125-8.535157 8.53125zm0 0" fill="#fff"/><path d="m238.933594 461.300781h-93.867188v-4.269531c0-25.917969 21.011719-46.933594 46.933594-46.933594s46.933594 21.015625 46.933594 46.933594zm0 0" fill="#cc66a1"/><path d="m392.53125 461.300781h-93.863281v-4.269531c0-25.917969 21.011719-46.933594 46.929687-46.933594 25.921875 0 46.933594 21.015625 46.933594 46.933594zm0 0" fill="#cc66a1"/><path d="m256 256.5h128v93.867188h-128c-9.425781 0-17.066406-7.640626-17.066406-17.066407v-59.734375c0-9.425781 7.640625-17.066406 17.066406-17.066406zm0 0" fill="#cc66a1"/><path d="m358.398438 307.699219c0 4.714843-3.820313 8.535156-8.53125 8.535156-4.714844 0-8.535157-3.820313-8.535157-8.535156 0-4.710938 3.820313-8.53125 8.535157-8.53125 4.710937 0 8.53125 3.820312 8.53125 8.53125zm0 0" fill="#894b9d"/><path d="m87.464844 304.628906c4.59375-.308594 8.859375-2.5 11.777344-6.058594l14.761718-17.75c3.59375-4.820312 8.429688-8.566406 13.996094-10.839843 1.71875-.640625 3.539062-.957031 5.375-.9375 6.574219.628906 13.019531 2.242187 19.113281 4.777343 6.941407 2.605469 14.769531.433594 19.371094-5.375l.769531-.9375c3.324219-4.191406 4.492188-9.703124 3.152344-14.882812-1.34375-5.183594-5.035156-9.433594-9.980469-11.484375-10.167969-4.015625-20.980469-6.15625-31.914062-6.316406-1.96875-.003907-3.933594.109375-5.886719.34375-16.101562 2.203125-30.625 10.820312-40.277344 23.890625l-14.679687 17.75c-3.507813 4.1875-4.777344 9.8125-3.410157 15.105468zm0 0" fill="#955ba5"/><path d="m97.175781 312.761719c0 17.671875-14.324219 32-32 32-17.671875 0-32-14.328125-32-32 0-17.675781 14.328125-32 32-32 17.675781 0 32 14.324219 32 32zm0 0" fill="#ff5364"/><path d="m466.652344 339.851562c0 17.675782-14.324219 32-32 32-17.671875 0-32-14.324218-32-32 0-17.671874 14.328125-32 32-32 17.675781 0 32 14.328126 32 32zm0 0" fill="#ff5364"/><path d="m153.597656 457.03125h76.800782c9.425781 0 17.066406 7.644531 17.066406 17.066406 0 9.425782-7.640625 17.070313-17.066406 17.070313h-76.800782c-9.421875 0-17.066406-7.644531-17.066406-17.070313 0-9.421875 7.644531-17.066406 17.066406-17.066406zm0 0" fill="#894b9d"/><path d="m307.199219 457.03125h76.800781c9.425781 0 17.066406 7.644531 17.066406 17.066406 0 9.425782-7.640625 17.070313-17.066406 17.070313h-76.800781c-9.425781 0-17.066407-7.644531-17.066407-17.070313 0-9.421875 7.640626-17.066406 17.066407-17.066406zm0 0" fill="#894b9d"/></svg>