<svg height="512pt" viewBox="-18 0 512 512" width="512pt" xmlns="http://www.w3.org/2000/svg"><path d="m52.964844 410.484375v-30.898437c.816406-39.800782 33.730468-71.414063 73.535156-70.621094h223.691406c39.800782-.792969 72.71875 30.820312 73.53125 70.621094v30.898437zm0 0" fill="#2c3e50"/><g fill="#2fa8cc"><path d="m114.757812 410.484375v-22.070313c0-19.5 15.808594-35.3125 35.3125-35.3125h176.550782c19.5 0 35.308594 15.8125 35.308594 35.3125v22.070313zm0 0"/><path d="m150.421875 508.46875c-44.726563-3.726562-89.179687-10.183594-133.121094-19.332031-4.992187-1.058594-9.40625-3.957031-12.355469-8.121094-3.238281-4.433594-4.9726558-9.785156-4.945312-15.273437v-.085938c0-32.929688 23.746094-59.585938 52.964844-59.585938h17.65625s8.828125 48.550782 52.964844 48.550782c37.253906 0 27.984374 42.105468 26.835937 53.847656zm0 0"/><path d="m476.691406 465.65625v.085938c.433594 10.894531-6.761718 20.625-17.304687 23.394531-43.9375 9.148437-88.394531 15.605469-133.117188 19.332031-1.148437-11.742188-10.417969-53.847656 26.835938-53.847656 44.136719 0 52.964843-48.550782 52.964843-48.550782h17.652344c29.222656 0 52.96875 26.65625 52.96875 59.585938zm0 0"/></g><path d="m406.070312 211.863281h-26.484374c-4.875 0-8.828126-3.953125-8.828126-8.828125s3.953126-8.828125 8.828126-8.828125h26.484374c4.875 0 8.828126 3.953125 8.828126 8.828125s-3.953126 8.828125-8.828126 8.828125zm0 0" fill="#35495e"/><path d="m441.378906 203.035156c0 9.75-7.902344 17.65625-17.65625 17.65625-9.75 0-17.652344-7.90625-17.652344-17.65625s7.902344-17.65625 17.652344-17.65625c9.753906 0 17.65625 7.90625 17.65625 17.65625zm0 0" fill="#67b9cc"/><path d="m97.105469 211.863281h-26.484375c-4.875 0-8.828125-3.953125-8.828125-8.828125s3.953125-8.828125 8.828125-8.828125h26.484375c4.875 0 8.824219 3.953125 8.824219 8.828125s-3.949219 8.828125-8.824219 8.828125zm0 0" fill="#35495e"/><path d="m70.621094 203.035156c0 9.75-7.90625 17.65625-17.65625 17.65625s-17.652344-7.90625-17.652344-17.65625 7.902344-17.65625 17.652344-17.65625 17.65625 7.90625 17.65625 17.65625zm0 0" fill="#67b9cc"/><path d="m194.207031 293.515625h-17.65625v136.097656h123.585938v-136.097656zm0 0" fill="#285680"/><path d="m335.449219 132.414062 38.929687 38.929688c3.332032 3.320312 5.207032 7.832031 5.207032 12.535156v32.925782c-.015626 7.605468-4.882813 14.355468-12.09375 16.773437l-32.21875 10.679687h-193.855469l-32.21875-10.679687c-7.210938-2.417969-12.078125-9.167969-12.09375-16.773437v-32.925782c0-4.703125 1.875-9.214844 5.207031-12.535156l38.929688-38.929688zm0 0" fill="#2c3e50"/><path d="m335.449219 123.585938v114.757812c0 1.941406-.089844 3.972656-.175781 5.914062-.089844.972657-.089844 1.945313-.265626 2.914063l-12.800781 4.414063c-19.5 0-35.308593 15.808593-35.308593 35.3125l-4.414063 37.957031c-27.730469 14.125-60.546875 14.125-88.277344 0l-4.414062-37.957031c0-19.503907-15.808594-35.3125-35.308594-35.3125l-12.800781-4.414063c-.175782-.96875-.175782-1.941406-.265625-2.914063-.089844-1.941406-.175781-3.972656-.175781-5.914062v-114.757812c-.019532-32.855469 16.589843-63.484376 44.136718-81.390626h105.933594c5.65625 3.691407 10.921875 7.949219 15.710938 12.710938 18.238281 18.199219 28.46875 42.917969 28.425781 68.679688zm0 0" fill="#2fa8cc"/><path d="m406.070312 406.070312s0 52.964844-44.140624 52.964844c-37.25 0-36.808594 37.691406-35.660157 49.433594-58.523437 4.679688-117.324219 4.679688-175.847656 0 1.148437-11.742188 1.589844-49.433594-35.664063-49.433594-44.136718 0-44.136718-52.964844-44.136718-52.964844zm0 0" fill="#4482c3"/><path d="m256 22.863281c8.898438.628907 17.742188 1.839844 26.484375 3.621094 4.875 0 8.828125 3.949219 8.828125 8.824219v52.96875c0 29.25-23.714844 52.964844-52.96875 52.964844-29.25 0-52.964844-23.714844-52.964844-52.964844v-52.96875c0-4.875 3.953125-8.824219 8.828125-8.824219 8.738281-1.78125 17.585938-2.992187 26.484375-3.621094" fill="#67b9cc"/><path d="m211.863281 194.207031c0 9.75-7.90625 17.65625-17.65625 17.65625s-17.65625-7.90625-17.65625-17.65625 7.90625-17.65625 17.65625-17.65625 17.65625 7.90625 17.65625 17.65625zm0 0" fill="#9fc9d3"/><path d="m300.136719 194.207031c0 9.75-7.902344 17.65625-17.652344 17.65625-9.753906 0-17.65625-7.90625-17.65625-17.65625s7.902344-17.65625 17.65625-17.65625c9.75 0 17.652344 7.90625 17.652344 17.65625zm0 0" fill="#9fc9d3"/><path d="m194.207031 282.484375v42.371094c-29.679687-15.164063-49.507812-44.492188-52.523437-77.683594h17.214844c19.5 0 35.308593 15.808594 35.308593 35.3125zm0 0" fill="#67b9cc"/><path d="m335.007812 247.171875c-3.015624 33.191406-22.84375 62.519531-52.523437 77.683594v-42.371094c0-19.503906 15.808594-35.3125 35.308594-35.3125zm0 0" fill="#67b9cc"/><path d="m291.3125 459.035156c0 29.25-23.714844 52.964844-52.96875 52.964844-29.25 0-52.964844-23.714844-52.964844-52.964844 0-29.253906 23.714844-52.964844 52.964844-52.964844 29.253906 0 52.96875 23.710938 52.96875 52.964844zm0 0" fill="#67b9cc"/><path d="m256 459.035156c0 9.75-7.902344 17.65625-17.65625 17.65625-9.75 0-17.652344-7.90625-17.652344-17.65625s7.902344-17.65625 17.652344-17.65625c9.753906 0 17.65625 7.90625 17.65625 17.65625zm0 0" fill="#9fc9d3"/><path d="m256 256h-35.308594c-4.875 0-8.828125-3.953125-8.828125-8.828125s3.953125-8.828125 8.828125-8.828125h35.308594c4.875 0 8.828125 3.953125 8.828125 8.828125s-3.953125 8.828125-8.828125 8.828125zm0 0" fill="#2c3e50"/><path d="m238.34375 0c9.753906 0 17.65625 7.90625 17.65625 17.65625v70.621094c0 9.75-7.902344 17.652344-17.65625 17.652344-9.75 0-17.652344-7.902344-17.652344-17.652344v-70.621094c0-9.75 7.902344-17.65625 17.652344-17.65625zm0 0" fill="#2c3e50"/></svg>